<?xml version="1.0" standalone="no"?>
<!DOCTYPE svg PUBLIC "-//W3C//DTD SVG 20010904//EN"
 "http://www.w3.org/TR/2001/REC-SVG-20010904/DTD/svg10.dtd">
<svg version="1.0" xmlns="http://www.w3.org/2000/svg"
 width="260.000000pt" height="260.000000pt" viewBox="0 0 260.000000 260.000000"
 preserveAspectRatio="xMidYMid meet">
<metadata>
Created by potrace 1.11, written by Peter Selinger 2001-2013
</metadata>
<g transform="translate(0.000000,260.000000) scale(0.100000,-0.100000)"
fill="#000000" stroke="none">
<path d="M545 2588 c-4 -12 -39 -174 -51 -238 -3 -14 -7 -32 -9 -40 -3 -8 -7
-33 -11 -55 -3 -22 -8 -43 -10 -46 -2 -3 -6 -21 -9 -40 -3 -19 -12 -63 -20
-99 -14 -63 -69 -320 -79 -370 -20 -101 -28 -139 -50 -243 -14 -65 -28 -133
-32 -150 -3 -18 -11 -61 -19 -97 -29 -130 -124 -587 -140 -665 -8 -44 -20 -98
-25 -120 -11 -45 -76 -356 -84 -398 l-5 -27 1027 2 1026 3 38 180 c21 99 40
192 43 207 3 14 17 80 31 145 14 65 27 127 29 138 2 11 15 76 30 145 15 69 29
134 31 145 1 11 12 61 23 110 11 50 22 101 24 115 3 14 23 113 46 220 23 107
43 204 45 215 13 63 193 915 201 953 l5 22 -1025 0 c-811 0 -1027 -3 -1030
-12z"/>
</g>
</svg>
