<?xml version="1.0" encoding="UTF-8"?>
<svg width="349px" height="76px" viewBox="0 0 349 76" version="1.1" xmlns="http://www.w3.org/2000/svg" xmlns:xlink="http://www.w3.org/1999/xlink">
    <!-- Generator: Sketch 43.2 (39069) - http://www.bohemiancoding.com/sketch -->
    <title>movingforward logo</title>
    <desc>Created with Sketch.</desc>
    <defs></defs>
    <g id="Page-1" stroke="none" stroke-width="1" fill="none" fill-rule="evenodd">
        <g id="Artboard-Copy-3" transform="translate(-55.000000, -50.000000)" fill="#FFFFFF">
            <path d="M94.3426516,78 L95.6052632,72 L91.4713167,72 L90.2087052,78 L85.841741,78 L85,82 L89.3669641,82 L88.3147878,87 L83.841741,87 L83,91 L87.4730468,91 L86,98 L90.1339465,98 L91.6069933,91 L96.4730468,91 L95,98 L99.1339465,98 L100.606993,91 L104.52668,91 L105.368421,87 L101.448734,87 L102.500911,82 L106.52668,82 L107.368421,78 L103.342652,78 L104.605263,72 L100.471317,72 L99.2087052,78 L94.3426516,78 Z M93.5009106,82 L98.3669641,82 L97.3147878,87 L92.4487343,87 L93.5009106,82 Z M70.9930796,50 L404,50 L388.00692,126 L55,126 L70.9930796,50 Z M115.292,72.296 L109.892,98 L115.22,98 L119.072,77.552 L119.144,77.552 L121.628,98 L125.948,98 L136.82,77.552 L136.892,77.552 L132.212,98 L137.504,98 L142.94,72.296 L135.056,72.296 L125.156,90.908 L125.084,90.908 L123.104,72.296 L115.292,72.296 Z M148.124,90.476 C148.124,91.0280028 148.201999,91.5559975 148.358,92.06 C148.514001,92.5640025 148.747998,93.0079981 149.06,93.392 C149.372002,93.7760019 149.755998,94.0819989 150.212,94.31 C150.668002,94.5380011 151.195997,94.652 151.796,94.652 C152.756005,94.652 153.577997,94.3940026 154.262,93.878 C154.946003,93.3619974 155.509998,92.7140039 155.954,91.934 C156.398002,91.1539961 156.727999,90.3080046 156.944,89.396 C157.160001,88.4839954 157.268,87.632004 157.268,86.84 C157.268,85.5919938 156.986003,84.5960037 156.422,83.852 C155.857997,83.1079963 154.892007,82.736 153.524,82.736 C152.587995,82.736 151.778003,82.9939974 151.094,83.51 C150.409997,84.0260026 149.852002,84.6679962 149.42,85.436 C148.987998,86.2040038 148.664001,87.0379955 148.448,87.938 C148.231999,88.8380045 148.124,89.683996 148.124,90.476 Z M143.012,90.476 C143.012,88.8919921 143.257998,87.398007 143.75,85.994 C144.242002,84.589993 144.949995,83.3600053 145.874,82.304 C146.798005,81.2479947 147.919993,80.4140031 149.24,79.802 C150.560007,79.1899969 152.047992,78.884 153.704,78.884 C154.976006,78.884 156.145995,79.0459984 157.214,79.37 C158.282005,79.6940016 159.199996,80.1799968 159.968,80.828 C160.736004,81.4760032 161.329998,82.2919951 161.75,83.276 C162.170002,84.2600049 162.38,85.4239933 162.38,86.768 C162.38,88.4000082 162.134002,89.9299929 161.642,91.358 C161.149998,92.7860071 160.436005,94.0279947 159.5,95.084 C158.563995,96.1400053 157.430007,96.967997 156.098,97.568 C154.765993,98.168003 153.248009,98.468 151.544,98.468 C148.951987,98.468 146.882008,97.8020067 145.334,96.47 C143.785992,95.1379933 143.012,93.1400133 143.012,90.476 Z M173.36,98 L167.528,98 L165.08,79.388 L170.336,79.388 L171.488,92.636 L171.56,92.636 L178.148,79.388 L183.548,79.388 L173.36,98 Z M191.936,76.508 L192.872,72.296 L187.724,72.296 L186.788,76.508 L191.936,76.508 Z M186.212,79.388 L191.36,79.388 L187.4,98 L182.288,98 L186.212,79.388 Z M195.464,79.388 L191.612,98 L196.688,98 L198.776,88.1 C198.920001,87.4519968 199.129999,86.8160031 199.406,86.192 C199.682001,85.5679969 200.029998,85.0160024 200.45,84.536 C200.870002,84.0559976 201.373997,83.6660015 201.962,83.366 C202.550003,83.0659985 203.227996,82.916 203.996,82.916 C204.596003,82.916 205.153997,83.0959982 205.67,83.456 C206.186003,83.8160018 206.444,84.2719972 206.444,84.824 C206.444,85.0880013 206.402,85.4599976 206.318,85.94 C206.234,86.4200024 206.168,86.8039986 206.12,87.092 L203.852,98 L208.964,98 L211.268,87.092 C211.292,86.9239992 211.334,86.7020014 211.394,86.426 C211.454,86.1499986 211.514,85.8560016 211.574,85.544 C211.634,85.2319984 211.688,84.9260015 211.736,84.626 C211.784,84.3259985 211.808,84.080001 211.808,83.888 C211.808,80.5519833 209.996018,78.884 206.372,78.884 C203.683987,78.884 201.512008,79.9159897 199.856,81.98 L199.784,81.98 L200.36,79.388 L195.464,79.388 Z M231.536,97.028 C231.223998,98.420007 230.804003,99.619995 230.276,100.628 C229.747997,101.636005 229.070004,102.463997 228.242,103.112 C227.413996,103.760003 226.430006,104.239998 225.29,104.552 C224.149994,104.864002 222.812008,105.02 221.276,105.02 C220.339995,105.02 219.398005,104.912001 218.45,104.696 C217.501995,104.479999 216.650004,104.132002 215.894,103.652 C215.137996,103.171998 214.526002,102.548004 214.058,101.78 C213.589998,101.011996 213.356,100.064006 213.356,98.936 L218.432,98.936 C218.408,99.4160024 218.491999,99.8239983 218.684,100.16 C218.876001,100.496002 219.133998,100.771999 219.458,100.988 C219.782002,101.204001 220.147998,101.36 220.556,101.456 C220.964002,101.552 221.371998,101.6 221.78,101.6 C222.596004,101.6 223.273997,101.432002 223.814,101.096 C224.354003,100.759998 224.815998,100.304003 225.2,99.728 C225.584002,99.1519971 225.907999,98.468004 226.172,97.676 C226.436001,96.883996 226.699999,96.0440044 226.964,95.156 L226.892,95.084 C225.571993,96.8360088 223.86801,97.712 221.78,97.712 C220.675994,97.712 219.680004,97.5320018 218.792,97.172 C217.903996,96.8119982 217.154003,96.2960034 216.542,95.624 C215.929997,94.9519966 215.456002,94.1540046 215.12,93.23 C214.783998,92.3059954 214.616,91.2680058 214.616,90.116 C214.616,88.7479932 214.825998,87.3980067 215.246,86.066 C215.666002,84.7339933 216.277996,83.5340053 217.082,82.466 C217.886004,81.3979947 218.869994,80.5340033 220.034,79.874 C221.198006,79.2139967 222.523993,78.884 224.012,78.884 C225.308006,78.884 226.447995,79.1359975 227.432,79.64 C228.416005,80.1440025 229.171997,81.0079939 229.7,82.232 L229.772,82.232 L230.348,79.388 L235.244,79.388 L231.536,97.028 Z M224.948,82.736 C224.083996,82.736 223.328003,82.9639977 222.68,83.42 C222.031997,83.8760023 221.492002,84.4459966 221.06,85.13 C220.627998,85.8140034 220.298001,86.5699959 220.07,87.398 C219.841999,88.2260041 219.728,89.0119963 219.728,89.756 C219.728,90.3080028 219.793999,90.8299975 219.926,91.322 C220.058001,91.8140025 220.267999,92.2519981 220.556,92.636 C220.844001,93.0200019 221.203998,93.3199989 221.636,93.536 C222.068002,93.7520011 222.583997,93.86 223.184,93.86 C224.096005,93.86 224.893997,93.6380022 225.578,93.194 C226.262003,92.7499978 226.825998,92.1860034 227.27,91.502 C227.714002,90.8179966 228.049999,90.0560042 228.278,89.216 C228.506001,88.3759958 228.62,87.560004 228.62,86.768 C228.62,85.5919941 228.320003,84.6260038 227.72,83.87 C227.119997,83.1139962 226.196006,82.736 224.948,82.736 Z M241.292,72.296 L259.58,72.296 L258.536,77.048 L245.936,77.048 L244.676,82.988 L255.692,82.988 L254.756,87.38 L243.776,87.38 L241.508,98 L235.892,98 L241.292,72.296 Z M262.82,90.476 C262.82,91.0280028 262.897999,91.5559975 263.054,92.06 C263.210001,92.5640025 263.443998,93.0079981 263.756,93.392 C264.068002,93.7760019 264.451998,94.0819989 264.908,94.31 C265.364002,94.5380011 265.891997,94.652 266.492,94.652 C267.452005,94.652 268.273997,94.3940026 268.958,93.878 C269.642003,93.3619974 270.205998,92.7140039 270.65,91.934 C271.094002,91.1539961 271.423999,90.3080046 271.64,89.396 C271.856001,88.4839954 271.964,87.632004 271.964,86.84 C271.964,85.5919938 271.682003,84.5960037 271.118,83.852 C270.553997,83.1079963 269.588007,82.736 268.22,82.736 C267.283995,82.736 266.474003,82.9939974 265.79,83.51 C265.105997,84.0260026 264.548002,84.6679962 264.116,85.436 C263.683998,86.2040038 263.360001,87.0379955 263.144,87.938 C262.927999,88.8380045 262.82,89.683996 262.82,90.476 Z M257.708,90.476 C257.708,88.8919921 257.953998,87.398007 258.446,85.994 C258.938002,84.589993 259.645995,83.3600053 260.57,82.304 C261.494005,81.2479947 262.615993,80.4140031 263.936,79.802 C265.256007,79.1899969 266.743992,78.884 268.4,78.884 C269.672006,78.884 270.841995,79.0459984 271.91,79.37 C272.978005,79.6940016 273.895996,80.1799968 274.664,80.828 C275.432004,81.4760032 276.025998,82.2919951 276.446,83.276 C276.866002,84.2600049 277.076,85.4239933 277.076,86.768 C277.076,88.4000082 276.830002,89.9299929 276.338,91.358 C275.845998,92.7860071 275.132005,94.0279947 274.196,95.084 C273.259995,96.1400053 272.126007,96.967997 270.794,97.568 C269.461993,98.168003 267.944009,98.468 266.24,98.468 C263.647987,98.468 261.578008,97.8020067 260.03,96.47 C258.481992,95.1379933 257.708,93.1400133 257.708,90.476 Z M282.152,79.388 L287.012,79.388 L286.256,82.736 L286.328,82.808 C286.904003,81.5119935 287.773994,80.5340033 288.938,79.874 C290.102006,79.2139967 291.367993,78.884 292.736,78.884 C293.264003,78.884 293.791997,78.9199996 294.32,78.992 L293.276,83.96 L292.196,83.744 C291.835998,83.6719996 291.476002,83.636 291.116,83.636 C290.131995,83.636 289.298003,83.8039983 288.614,84.14 C287.929997,84.4760017 287.354002,84.9319971 286.886,85.508 C286.417998,86.0840029 286.046001,86.7379963 285.77,87.47 C285.493999,88.2020037 285.272001,88.963996 285.104,89.756 L283.376,98 L278.3,98 L282.152,79.388 Z M313.004,98 L307.676,98 L307.028,84.932 L306.956,84.932 L301.196,98 L295.832,98 L293.78,79.388 L299,79.388 L299.72,92.492 L299.792,92.492 L305.516,79.388 L310.7,79.388 L311.276,92.384 L311.348,92.384 L317.324,79.388 L322.724,79.388 L313.004,98 Z M324.2,85.04 C324.368001,83.8639941 324.727997,82.8860039 325.28,82.106 C325.832003,81.3259961 326.503996,80.6960024 327.296,80.216 C328.088004,79.7359976 328.975995,79.394001 329.96,79.19 C330.944005,78.985999 331.963995,78.884 333.02,78.884 C333.860004,78.884 334.735995,78.9439994 335.648,79.064 C336.560005,79.1840006 337.399996,79.4179983 338.168,79.766 C338.936004,80.1140017 339.565998,80.6059968 340.058,81.242 C340.550002,81.8780032 340.784,82.7239947 340.76,83.78 C340.76,84.6680044 340.628001,85.711994 340.364,86.912 L338.708,94.4 C338.612,94.7360017 338.546,95.1499975 338.51,95.642 C338.474,96.1340025 338.456,96.5599982 338.456,96.92 C338.456,97.2320016 338.515999,97.591998 338.636,98 L333.524,98 L333.524,96.164 C332.827997,96.956004 331.976005,97.5379981 330.968,97.91 C329.959995,98.2820019 328.916005,98.468 327.836,98.468 C326.827995,98.468 325.946004,98.3360013 325.19,98.072 C324.433996,97.8079987 323.804003,97.4540022 323.3,97.01 C322.795997,96.5659978 322.424001,96.0500029 322.184,95.462 C321.943999,94.8739971 321.824,94.2560032 321.824,93.608 C321.824,91.807991 322.441994,90.3680054 323.678,89.288 C324.914006,88.2079946 326.659989,87.5360013 328.916,87.272 C330.116006,87.1279993 331.159996,87.0200004 332.048,86.948 C332.936004,86.8759996 333.673997,86.7620008 334.262,86.606 C334.850003,86.4499992 335.287999,86.2220015 335.576,85.922 C335.864001,85.6219985 336.008,85.172003 336.008,84.572 C336.008,84.0919976 335.900001,83.7080014 335.684,83.42 C335.467999,83.1319986 335.198002,82.9040008 334.874,82.736 C334.549998,82.5679992 334.202002,82.4540003 333.83,82.394 C333.457998,82.3339997 333.104002,82.304 332.768,82.304 C331.855995,82.304 331.040004,82.5259978 330.32,82.97 C329.599996,83.4140022 329.156001,84.1039953 328.988,85.04 L324.2,85.04 Z M335,89.072 C334.351997,89.4560019 333.656004,89.6899996 332.912,89.774 C332.167996,89.8580004 331.424004,89.9239998 330.68,89.972 C330.199998,90.0200002 329.732002,90.0979995 329.276,90.206 C328.819998,90.3140005 328.418002,90.4759989 328.07,90.692 C327.721998,90.9080011 327.440001,91.2019981 327.224,91.574 C327.007999,91.9460019 326.9,92.4199971 326.9,92.996 C326.9,93.6920035 327.181997,94.2139983 327.746,94.562 C328.310003,94.9100017 328.963996,95.084 329.708,95.084 C330.500004,95.084 331.165997,94.9580013 331.706,94.706 C332.246003,94.4539987 332.701998,94.130002 333.074,93.734 C333.446002,93.337998 333.739999,92.8880025 333.956,92.384 C334.172001,91.8799975 334.351999,91.3760025 334.496,90.872 L335,89.072 Z M346.16,79.388 L351.02,79.388 L350.264,82.736 L350.336,82.808 C350.912003,81.5119935 351.781994,80.5340033 352.946,79.874 C354.110006,79.2139967 355.375993,78.884 356.744,78.884 C357.272003,78.884 357.799997,78.9199996 358.328,78.992 L357.284,83.96 L356.204,83.744 C355.843998,83.6719996 355.484002,83.636 355.124,83.636 C354.139995,83.636 353.306003,83.8039983 352.622,84.14 C351.937997,84.4760017 351.362002,84.9319971 350.894,85.508 C350.425998,86.0840029 350.054001,86.7379963 349.778,87.47 C349.501999,88.2020037 349.280001,88.963996 349.112,89.756 L347.384,98 L342.308,98 L346.16,79.388 Z M367.76,82.736 C366.799995,82.736 365.966004,82.9879975 365.258,83.492 C364.549996,83.9960025 363.968002,84.6319962 363.512,85.4 C363.055998,86.1680038 362.720001,87.0079954 362.504,87.92 C362.287999,88.8320046 362.18,89.6959959 362.18,90.512 C362.18,91.0640028 362.257999,91.5919975 362.414,92.096 C362.570001,92.6000025 362.797998,93.0379981 363.098,93.41 C363.398001,93.7820019 363.775998,94.0819989 364.232,94.31 C364.688002,94.5380011 365.215997,94.652 365.816,94.652 C366.776005,94.652 367.603997,94.3940026 368.3,93.878 C368.996003,93.3619974 369.577998,92.708004 370.046,91.916 C370.514002,91.123996 370.861999,90.2660046 371.09,89.342 C371.318001,88.4179954 371.432,87.560004 371.432,86.768 C371.432,85.5439939 371.132003,84.5660037 370.532,83.834 C369.931997,83.1019963 369.008006,82.736 367.76,82.736 Z M369.812,95.696 L369.74,95.624 C369.163997,96.632005 368.378005,97.3579978 367.382,97.802 C366.385995,98.2460022 365.312006,98.468 364.16,98.468 C361.903989,98.468 360.158006,97.8140065 358.922,96.506 C357.685994,95.1979935 357.068,93.4160113 357.068,91.16 C357.068,89.6239923 357.271998,88.1240073 357.68,86.66 C358.088002,85.1959927 358.711996,83.8880058 359.552,82.736 C360.392004,81.5839942 361.447994,80.6540035 362.72,79.946 C363.992006,79.2379965 365.491991,78.884 367.22,78.884 C368.300005,78.884 369.337995,79.1239976 370.334,79.604 C371.330005,80.0840024 372.031998,80.8399948 372.44,81.872 L372.512,81.872 L374.564,72.296 L379.676,72.296 L374.24,98 L369.308,98 L369.812,95.696 Z" id="movingforward-logo"></path>
        </g>
    </g>
</svg>